# xmcd CD database file
#
# Track frame offsets:
#	150
#	39057
#	50185
#	67292
#	79155
#	91842
#	103835
#	116087
#	131877
#	145925
#	195955
#	211250
#
# Disc length: 3045 seconds
#
# Revision: 0
# Processed by: cddbd v1.5.1PL2 Copyright (c) Steve Scherf et al.
# Submitted via: CDex 1.60beta1-cs1
#
DISCID=af0be30c
DTITLE=Zoot Sims - Zoot Sims Quartets
DYEAR=1951
DGENRE=Jazz
TTITLE0=Zoot Swings The Blues (Take 1)
TTITLE1=Zoot Swings The Blues (Take 2)
TTITLE2=Trotting
TTITLE3=I Wonder Who
TTITLE4=It Had To Be You
TTITLE5=My Silent Love
TTITLE6=Jane-O
TTITLE7=Dancing In The Dark
TTITLE8=Memories Of You
TTITLE9=East Of The Sun
TTITLE10=Trotting (Alternate #1)
TTITLE11=Trotting (Alternate #2)
EXTD=YEAR: 1951
EXTT0=
EXTT1=
EXTT2=
EXTT3=
EXTT4=
EXTT5=
EXTT6=
EXTT7=
EXTT8=
EXTT9=
EXTT10=
EXTT11=
PLAYORDER=
